<?xml version="1.0" encoding="UTF-8" standalone="no"?>
<!DOCTYPE svg PUBLIC "-//W3C//DTD SVG 1.1//EN"
 "http://www.w3.org/Graphics/SVG/1.1/DTD/svg11.dtd">
<!-- Generated by graphviz version 14.1.1 (20251213.1925)
 -->
<!-- Title: InheritanceTree Pages: 1 -->
<svg width="351pt" height="213pt"
 viewBox="0.00 0.00 351.00 213.00" xmlns="http://www.w3.org/2000/svg" xmlns:xlink="http://www.w3.org/1999/xlink">
<g id="graph0" class="graph" transform="scale(1 1) rotate(0) translate(4 208.5)">
<title>InheritanceTree</title>
<polygon fill="white" stroke="none" points="-4,4 -4,-208.5 346.5,-208.5 346.5,4 -4,4"/>
<text xml:space="preserve" text-anchor="middle" x="171.25" y="-7.2" font-family="Times New Roman,serif" font-size="14.00">simple_mmap &#45; Inheritance Hierarchy</text>
<!-- SIMPLE_MMAP -->
<g id="node1" class="node">
<title>SIMPLE_MMAP</title>
<path fill="none" stroke="black" d="M102.25,-60.5C102.25,-60.5 12,-60.5 12,-60.5 6,-60.5 0,-54.5 0,-48.5 0,-48.5 0,-36.5 0,-36.5 0,-30.5 6,-24.5 12,-24.5 12,-24.5 102.25,-24.5 102.25,-24.5 108.25,-24.5 114.25,-30.5 114.25,-36.5 114.25,-36.5 114.25,-48.5 114.25,-48.5 114.25,-54.5 108.25,-60.5 102.25,-60.5"/>
<text xml:space="preserve" text-anchor="middle" x="57.12" y="-37.45" font-family="Times New Roman,serif" font-size="14.00">SIMPLE_MMAP</text>
</g>
<!-- LIB_TESTS -->
<g id="node2" class="node">
<title>LIB_TESTS</title>
<path fill="none" stroke="black" d="M87.25,-132.5C87.25,-132.5 27,-132.5 27,-132.5 21,-132.5 15,-126.5 15,-120.5 15,-120.5 15,-108.5 15,-108.5 15,-102.5 21,-96.5 27,-96.5 27,-96.5 87.25,-96.5 87.25,-96.5 93.25,-96.5 99.25,-102.5 99.25,-108.5 99.25,-108.5 99.25,-120.5 99.25,-120.5 99.25,-126.5 93.25,-132.5 87.25,-132.5"/>
<text xml:space="preserve" text-anchor="middle" x="57.12" y="-109.45" font-family="Times New Roman,serif" font-size="14.00">LIB_TESTS</text>
</g>
<!-- TEST_SET_BASE -->
<g id="node3" class="node">
<title>TEST_SET_BASE</title>
<path fill="none" stroke="black" d="M330.5,-132.5C330.5,-132.5 234.25,-132.5 234.25,-132.5 228.25,-132.5 222.25,-126.5 222.25,-120.5 222.25,-120.5 222.25,-108.5 222.25,-108.5 222.25,-102.5 228.25,-96.5 234.25,-96.5 234.25,-96.5 330.5,-96.5 330.5,-96.5 336.5,-96.5 342.5,-102.5 342.5,-108.5 342.5,-108.5 342.5,-120.5 342.5,-120.5 342.5,-126.5 336.5,-132.5 330.5,-132.5"/>
<text xml:space="preserve" text-anchor="middle" x="282.38" y="-109.45" font-family="Times New Roman,serif" font-size="14.00">TEST_SET_BASE</text>
</g>
<!-- LIB_TESTS&#45;&gt;TEST_SET_BASE -->
<g id="edge1" class="edge">
<title>LIB_TESTS&#45;&gt;TEST_SET_BASE</title>
<path fill="none" stroke="black" d="M99.49,-114.5C99.49,-114.5 210.4,-114.5 210.4,-114.5"/>
<polygon fill="none" stroke="black" points="210.4,-118 220.4,-114.5 210.4,-111 210.4,-118"/>
</g>
<!-- TEST_APP -->
<g id="node4" class="node">
<title>TEST_APP</title>
<path fill="none" stroke="black" d="M85,-204.5C85,-204.5 29.25,-204.5 29.25,-204.5 23.25,-204.5 17.25,-198.5 17.25,-192.5 17.25,-192.5 17.25,-180.5 17.25,-180.5 17.25,-174.5 23.25,-168.5 29.25,-168.5 29.25,-168.5 85,-168.5 85,-168.5 91,-168.5 97,-174.5 97,-180.5 97,-180.5 97,-192.5 97,-192.5 97,-198.5 91,-204.5 85,-204.5"/>
<text xml:space="preserve" text-anchor="middle" x="57.12" y="-181.45" font-family="Times New Roman,serif" font-size="14.00">TEST_APP</text>
</g>
</g>
</svg>
