<?xml version="1.0" encoding="UTF-8" standalone="no"?>
<!DOCTYPE svg PUBLIC "-//W3C//DTD SVG 1.1//EN"
 "http://www.w3.org/Graphics/SVG/1.1/DTD/svg11.dtd">
<!-- Generated by graphviz version 14.1.1 (20251213.1925)
 -->
<!-- Title: ContractCoverage Pages: 1 -->
<svg width="816pt" height="631pt"
 viewBox="48.00 48.00 768.00 583.00" xmlns="http://www.w3.org/2000/svg" xmlns:xlink="http://www.w3.org/1999/xlink">
<g id="graph0" class="graph" transform="scale(0.677288 0.677288) rotate(0) translate(74.87 856.62)">
<title>ContractCoverage</title>
<polygon fill="white" stroke="none" points="-4,4 -4,-785.75 1059.06,-785.75 1059.06,4 -4,4"/>
<text xml:space="preserve" text-anchor="middle" x="527.53" y="-768.25" font-family="Times New Roman,serif" font-size="10.00">simple_mmap &#45; Contract Coverage</text>
<g id="clust1" class="cluster">
<title>cluster_SIMPLE_MMAP</title>
<polygon fill="white" stroke="black" points="0,-78 0,-618.5 582,-618.5 582,-78 0,-78"/>
<text xml:space="preserve" text-anchor="middle" x="291" y="-601.2" font-family="Times New Roman,serif" font-size="14.00">SIMPLE_MMAP</text>
</g>
<g id="clust2" class="cluster">
<title>cluster_LIB_TESTS</title>
<polygon fill="white" stroke="black" points="662.94,0 662.94,-340.5 1055.06,-340.5 1055.06,0 662.94,0"/>
<text xml:space="preserve" text-anchor="middle" x="859" y="-323.2" font-family="Times New Roman,serif" font-size="14.00">LIB_TESTS</text>
</g>
<g id="clust3" class="cluster">
<title>cluster_TEST_APP</title>
<polygon fill="white" stroke="black" points="663,-702 663,-762.5 727,-762.5 727,-702 663,-702"/>
<text xml:space="preserve" text-anchor="middle" x="695" y="-745.2" font-family="Times New Roman,serif" font-size="14.00">TEST_APP</text>
</g>
<g id="clust4" class="cluster">
<title>cluster_legend</title>
<polygon fill="lightyellow" stroke="black" points="662.62,-429.12 662.62,-625.38 883.38,-625.38 883.38,-429.12 662.62,-429.12"/>
<text xml:space="preserve" text-anchor="middle" x="773" y="-611.88" font-family="Times New Roman,serif" font-size="10.00">Legend</text>
</g>
<!-- SIMPLE_MMAP_make_from_file -->
<g id="node1" class="node">
<title>SIMPLE_MMAP_make_from_file</title>
<polygon fill="lightgray" stroke="black" points="344.25,-174 263.75,-174 263.75,-138 344.25,-138 344.25,-174"/>
<text xml:space="preserve" text-anchor="middle" x="304" y="-152.12" font-family="Times New Roman,serif" font-size="10.00">make_from_file</text>
</g>
<!-- SIMPLE_MMAP_path_not_empty -->
<g id="node2" class="node">
<title>SIMPLE_MMAP_path_not_empty</title>
<polygon fill="lightgray" stroke="black" points="148.75,-468 65.25,-468 65.25,-432 148.75,-432 148.75,-468"/>
<text xml:space="preserve" text-anchor="middle" x="107" y="-446.12" font-family="Times New Roman,serif" font-size="10.00">path_not_empty</text>
</g>
<!-- SIMPLE_MMAP_a_path -->
<g id="node3" class="node">
<title>SIMPLE_MMAP_a_path</title>
<polygon fill="lightgray" stroke="black" points="132,-114 78,-114 78,-78 132,-78 132,-114"/>
<text xml:space="preserve" text-anchor="middle" x="105" y="-92.12" font-family="Times New Roman,serif" font-size="10.00">a_path</text>
</g>
<!-- SIMPLE_MMAP_is_empty -->
<g id="node4" class="node">
<title>SIMPLE_MMAP_is_empty</title>
<polygon fill="lightcoral" stroke="black" points="54,-114 0,-114 0,-78 54,-78 54,-114"/>
<text xml:space="preserve" text-anchor="middle" x="27" y="-92.12" font-family="Times New Roman,serif" font-size="10.00">is_empty</text>
</g>
<!-- SIMPLE_MMAP_make_anonymous -->
<g id="node5" class="node">
<title>SIMPLE_MMAP_make_anonymous</title>
<polygon fill="khaki" stroke="black" points="336.12,-528 245.87,-528 245.87,-492 336.12,-492 336.12,-528"/>
<text xml:space="preserve" text-anchor="middle" x="291" y="-506.12" font-family="Times New Roman,serif" font-size="10.00">make_anonymous</text>
</g>
<!-- SIMPLE_MMAP_make_shared -->
<g id="node6" class="node">
<title>SIMPLE_MMAP_make_shared</title>
<polygon fill="khaki" stroke="black" points="218.62,-174 149.37,-174 149.37,-138 218.62,-138 218.62,-174"/>
<text xml:space="preserve" text-anchor="middle" x="184" y="-152.12" font-family="Times New Roman,serif" font-size="10.00">make_shared</text>
</g>
<!-- SIMPLE_MMAP_open_shared -->
<g id="node7" class="node">
<title>SIMPLE_MMAP_open_shared</title>
<polygon fill="khaki" stroke="black" points="306.87,-588 239.12,-588 239.12,-552 306.87,-552 306.87,-588"/>
<text xml:space="preserve" text-anchor="middle" x="273" y="-566.12" font-family="Times New Roman,serif" font-size="10.00">open_shared</text>
</g>
<!-- SIMPLE_MMAP_is_valid -->
<g id="node8" class="node">
<title>SIMPLE_MMAP_is_valid</title>
<polygon fill="lightcoral" stroke="black" points="396,-114 342,-114 342,-78 396,-78 396,-114"/>
<text xml:space="preserve" text-anchor="middle" x="369" y="-92.12" font-family="Times New Roman,serif" font-size="10.00">is_valid</text>
</g>
<!-- SIMPLE_MMAP_is_writable -->
<g id="node9" class="node">
<title>SIMPLE_MMAP_is_writable</title>
<polygon fill="lightcoral" stroke="black" points="552.87,-234 491.12,-234 491.12,-198 552.87,-198 552.87,-234"/>
<text xml:space="preserve" text-anchor="middle" x="522" y="-212.12" font-family="Times New Roman,serif" font-size="10.00">is_writable</text>
</g>
<!-- SIMPLE_MMAP_size -->
<g id="node10" class="node">
<title>SIMPLE_MMAP_size</title>
<polygon fill="lightcoral" stroke="black" points="570,-474 516,-474 516,-438 570,-438 570,-474"/>
<text xml:space="preserve" text-anchor="middle" x="543" y="-452.12" font-family="Times New Roman,serif" font-size="10.00">size</text>
</g>
<!-- SIMPLE_MMAP_last_error -->
<g id="node11" class="node">
<title>SIMPLE_MMAP_last_error</title>
<polygon fill="lightcoral" stroke="black" points="318.12,-114 263.87,-114 263.87,-78 318.12,-78 318.12,-114"/>
<text xml:space="preserve" text-anchor="middle" x="291" y="-92.12" font-family="Times New Roman,serif" font-size="10.00">last_error</text>
</g>
<!-- SIMPLE_MMAP_read_byte -->
<g id="node12" class="node">
<title>SIMPLE_MMAP_read_byte</title>
<polygon fill="khaki" stroke="black" points="554.25,-114 497.75,-114 497.75,-78 554.25,-78 554.25,-114"/>
<text xml:space="preserve" text-anchor="middle" x="526" y="-92.12" font-family="Times New Roman,serif" font-size="10.00">read_byte</text>
</g>
<!-- SIMPLE_MMAP_read_integer -->
<g id="node13" class="node">
<title>SIMPLE_MMAP_read_integer</title>
<polygon fill="khaki" stroke="black" points="120.5,-348 53.5,-348 53.5,-312 120.5,-312 120.5,-348"/>
<text xml:space="preserve" text-anchor="middle" x="87" y="-326.12" font-family="Times New Roman,serif" font-size="10.00">read_integer</text>
</g>
<!-- SIMPLE_MMAP_read_bytes -->
<g id="node14" class="node">
<title>SIMPLE_MMAP_read_bytes</title>
<polygon fill="khaki" stroke="black" points="96.12,-288 35.87,-288 35.87,-252 96.12,-252 96.12,-288"/>
<text xml:space="preserve" text-anchor="middle" x="66" y="-266.12" font-family="Times New Roman,serif" font-size="10.00">read_bytes</text>
</g>
<!-- SIMPLE_MMAP_read_string -->
<g id="node15" class="node">
<title>SIMPLE_MMAP_read_string</title>
<polygon fill="khaki" stroke="black" points="114.87,-528 53.12,-528 53.12,-492 114.87,-492 114.87,-528"/>
<text xml:space="preserve" text-anchor="middle" x="84" y="-506.12" font-family="Times New Roman,serif" font-size="10.00">read_string</text>
</g>
<!-- SIMPLE_MMAP_write_byte -->
<g id="node16" class="node">
<title>SIMPLE_MMAP_write_byte</title>
<polygon fill="khaki" stroke="black" points="540.12,-594 479.88,-594 479.88,-558 540.12,-558 540.12,-594"/>
<text xml:space="preserve" text-anchor="middle" x="510" y="-572.12" font-family="Times New Roman,serif" font-size="10.00">write_byte</text>
</g>
<!-- SIMPLE_MMAP_write_integer -->
<g id="node17" class="node">
<title>SIMPLE_MMAP_write_integer</title>
<polygon fill="khaki" stroke="black" points="526.38,-174 455.62,-174 455.62,-138 526.38,-138 526.38,-174"/>
<text xml:space="preserve" text-anchor="middle" x="491" y="-152.12" font-family="Times New Roman,serif" font-size="10.00">write_integer</text>
</g>
<!-- SIMPLE_MMAP_write_bytes -->
<g id="node18" class="node">
<title>SIMPLE_MMAP_write_bytes</title>
<polygon fill="khaki" stroke="black" points="550,-354 486,-354 486,-318 550,-318 550,-354"/>
<text xml:space="preserve" text-anchor="middle" x="518" y="-332.12" font-family="Times New Roman,serif" font-size="10.00">write_bytes</text>
</g>
<!-- SIMPLE_MMAP_write_string -->
<g id="node19" class="node">
<title>SIMPLE_MMAP_write_string</title>
<polygon fill="khaki" stroke="black" points="394.75,-588 329.25,-588 329.25,-552 394.75,-552 394.75,-588"/>
<text xml:space="preserve" text-anchor="middle" x="362" y="-566.12" font-family="Times New Roman,serif" font-size="10.00">write_string</text>
</g>
<!-- SIMPLE_MMAP_flush -->
<g id="node20" class="node">
<title>SIMPLE_MMAP_flush</title>
<polygon fill="khaki" stroke="black" points="582,-534 528,-534 528,-498 582,-498 582,-534"/>
<text xml:space="preserve" text-anchor="middle" x="555" y="-512.12" font-family="Times New Roman,serif" font-size="10.00">flush</text>
</g>
<!-- SIMPLE_MMAP_close -->
<g id="node21" class="node">
<title>SIMPLE_MMAP_close</title>
<polygon fill="khaki" stroke="black" points="210,-114 156,-114 156,-78 210,-78 210,-114"/>
<text xml:space="preserve" text-anchor="middle" x="183" y="-92.12" font-family="Times New Roman,serif" font-size="10.00">close</text>
</g>
<!-- SIMPLE_MMAP_last_write_count -->
<g id="node22" class="node">
<title>SIMPLE_MMAP_last_write_count</title>
<polygon fill="lightgray" stroke="black" points="504.5,-534 419.5,-534 419.5,-498 504.5,-498 504.5,-534"/>
<text xml:space="preserve" text-anchor="middle" x="462" y="-512.12" font-family="Times New Roman,serif" font-size="10.00">last_write_count</text>
</g>
<!-- SIMPLE_MMAP_last_flush_succeeded -->
<g id="node23" class="node">
<title>SIMPLE_MMAP_last_flush_succeeded</title>
<polygon fill="lightgray" stroke="black" points="276.5,-468 173.5,-468 173.5,-432 276.5,-432 276.5,-468"/>
<text xml:space="preserve" text-anchor="middle" x="225" y="-446.12" font-family="Times New Roman,serif" font-size="10.00">last_flush_succeeded</text>
</g>
<!-- SIMPLE_MMAP_handle -->
<g id="node24" class="node">
<title>SIMPLE_MMAP_handle</title>
<polygon fill="lightgray" stroke="black" points="474,-114 420,-114 420,-78 474,-78 474,-114"/>
<text xml:space="preserve" text-anchor="middle" x="447" y="-92.12" font-family="Times New Roman,serif" font-size="10.00">handle</text>
</g>
<!-- SIMPLE_MMAP_c_smm_create_file_mapping -->
<g id="node25" class="node">
<title>SIMPLE_MMAP_c_smm_create_file_mapping</title>
<polygon fill="lightcoral" stroke="black" points="492.87,-474 359.12,-474 359.12,-438 492.87,-438 492.87,-474"/>
<text xml:space="preserve" text-anchor="middle" x="426" y="-452.12" font-family="Times New Roman,serif" font-size="10.00">c_smm_create_file_mapping</text>
</g>
<!-- SIMPLE_MMAP_c_smm_create_anonymous_mapping -->
<g id="node26" class="node">
<title>SIMPLE_MMAP_c_smm_create_anonymous_mapping</title>
<polygon fill="lightcoral" stroke="black" points="340.75,-354 173.25,-354 173.25,-318 340.75,-318 340.75,-354"/>
<text xml:space="preserve" text-anchor="middle" x="257" y="-332.12" font-family="Times New Roman,serif" font-size="10.00">c_smm_create_anonymous_mapping</text>
</g>
<!-- SIMPLE_MMAP_c_smm_create_shared_mapping -->
<g id="node27" class="node">
<title>SIMPLE_MMAP_c_smm_create_shared_mapping</title>
<polygon fill="lightcoral" stroke="black" points="410.25,-294 263.75,-294 263.75,-258 410.25,-258 410.25,-294"/>
<text xml:space="preserve" text-anchor="middle" x="337" y="-272.12" font-family="Times New Roman,serif" font-size="10.00">c_smm_create_shared_mapping</text>
</g>
<!-- SIMPLE_MMAP_c_smm_open_shared_mapping -->
<g id="node28" class="node">
<title>SIMPLE_MMAP_c_smm_open_shared_mapping</title>
<polygon fill="lightcoral" stroke="black" points="442.37,-414 299.62,-414 299.62,-378 442.37,-378 442.37,-414"/>
<text xml:space="preserve" text-anchor="middle" x="371" y="-392.12" font-family="Times New Roman,serif" font-size="10.00">c_smm_open_shared_mapping</text>
</g>
<!-- SIMPLE_MMAP_c_smm_get_data -->
<g id="node29" class="node">
<title>SIMPLE_MMAP_c_smm_get_data</title>
<polygon fill="lightcoral" stroke="black" points="222.5,-528 137.5,-528 137.5,-492 222.5,-492 222.5,-528"/>
<text xml:space="preserve" text-anchor="middle" x="180" y="-506.12" font-family="Times New Roman,serif" font-size="10.00">c_smm_get_data</text>
</g>
<!-- SIMPLE_MMAP_c_smm_get_size -->
<g id="node30" class="node">
<title>SIMPLE_MMAP_c_smm_get_size</title>
<polygon fill="lightcoral" stroke="black" points="148.75,-408 65.25,-408 65.25,-372 148.75,-372 148.75,-408"/>
<text xml:space="preserve" text-anchor="middle" x="107" y="-386.12" font-family="Times New Roman,serif" font-size="10.00">c_smm_get_size</text>
</g>
<!-- SIMPLE_MMAP_c_smm_read -->
<g id="node31" class="node">
<title>SIMPLE_MMAP_c_smm_read</title>
<polygon fill="lightcoral" stroke="black" points="216.5,-588 149.5,-588 149.5,-552 216.5,-552 216.5,-588"/>
<text xml:space="preserve" text-anchor="middle" x="183" y="-566.12" font-family="Times New Roman,serif" font-size="10.00">c_smm_read</text>
</g>
<!-- SIMPLE_MMAP_c_smm_write -->
<g id="node32" class="node">
<title>SIMPLE_MMAP_c_smm_write</title>
<polygon fill="lightcoral" stroke="black" points="436.37,-174 365.62,-174 365.62,-138 436.37,-138 436.37,-174"/>
<text xml:space="preserve" text-anchor="middle" x="401" y="-152.12" font-family="Times New Roman,serif" font-size="10.00">c_smm_write</text>
</g>
<!-- SIMPLE_MMAP_c_smm_read_byte -->
<g id="node33" class="node">
<title>SIMPLE_MMAP_c_smm_read_byte</title>
<polygon fill="lightcoral" stroke="black" points="468.12,-234 377.87,-234 377.87,-198 468.12,-198 468.12,-234"/>
<text xml:space="preserve" text-anchor="middle" x="423" y="-212.12" font-family="Times New Roman,serif" font-size="10.00">c_smm_read_byte</text>
</g>
<!-- SIMPLE_MMAP_c_smm_write_byte -->
<g id="node34" class="node">
<title>SIMPLE_MMAP_c_smm_write_byte</title>
<polygon fill="lightcoral" stroke="black" points="358,-234 264,-234 264,-198 358,-198 358,-234"/>
<text xml:space="preserve" text-anchor="middle" x="311" y="-212.12" font-family="Times New Roman,serif" font-size="10.00">c_smm_write_byte</text>
</g>
<!-- SIMPLE_MMAP_c_smm_read_int32 -->
<g id="node35" class="node">
<title>SIMPLE_MMAP_c_smm_read_int32</title>
<polygon fill="lightcoral" stroke="black" points="214,-234 120,-234 120,-198 214,-198 214,-234"/>
<text xml:space="preserve" text-anchor="middle" x="167" y="-212.12" font-family="Times New Roman,serif" font-size="10.00">c_smm_read_int32</text>
</g>
<!-- SIMPLE_MMAP_c_smm_write_int32 -->
<g id="node36" class="node">
<title>SIMPLE_MMAP_c_smm_write_int32</title>
<polygon fill="lightcoral" stroke="black" points="462.87,-354 365.12,-354 365.12,-318 462.87,-318 462.87,-354"/>
<text xml:space="preserve" text-anchor="middle" x="414" y="-332.12" font-family="Times New Roman,serif" font-size="10.00">c_smm_write_int32</text>
</g>
<!-- SIMPLE_MMAP_c_smm_flush -->
<g id="node37" class="node">
<title>SIMPLE_MMAP_c_smm_flush</title>
<polygon fill="lightcoral" stroke="black" points="130,-588 60,-588 60,-552 130,-552 130,-588"/>
<text xml:space="preserve" text-anchor="middle" x="95" y="-566.12" font-family="Times New Roman,serif" font-size="10.00">c_smm_flush</text>
</g>
<!-- SIMPLE_MMAP_c_smm_is_valid -->
<g id="node38" class="node">
<title>SIMPLE_MMAP_c_smm_is_valid</title>
<polygon fill="lightcoral" stroke="black" points="514.38,-294 431.62,-294 431.62,-258 514.38,-258 514.38,-294"/>
<text xml:space="preserve" text-anchor="middle" x="473" y="-272.12" font-family="Times New Roman,serif" font-size="10.00">c_smm_is_valid</text>
</g>
<!-- SIMPLE_MMAP_c_smm_is_writable -->
<g id="node39" class="node">
<title>SIMPLE_MMAP_c_smm_is_writable</title>
<polygon fill="lightcoral" stroke="black" points="238.75,-294 143.25,-294 143.25,-258 238.75,-258 238.75,-294"/>
<text xml:space="preserve" text-anchor="middle" x="191" y="-272.12" font-family="Times New Roman,serif" font-size="10.00">c_smm_is_writable</text>
</g>
<!-- SIMPLE_MMAP_c_smm_get_error -->
<g id="node40" class="node">
<title>SIMPLE_MMAP_c_smm_get_error</title>
<polygon fill="lightcoral" stroke="black" points="548.25,-414 461.75,-414 461.75,-378 548.25,-378 548.25,-414"/>
<text xml:space="preserve" text-anchor="middle" x="505" y="-392.12" font-family="Times New Roman,serif" font-size="10.00">c_smm_get_error</text>
</g>
<!-- SIMPLE_MMAP_c_smm_close -->
<g id="node41" class="node">
<title>SIMPLE_MMAP_c_smm_close</title>
<polygon fill="lightcoral" stroke="black" points="130.37,-174 59.62,-174 59.62,-138 130.37,-138 130.37,-174"/>
<text xml:space="preserve" text-anchor="middle" x="95" y="-152.12" font-family="Times New Roman,serif" font-size="10.00">c_smm_close</text>
</g>
<!-- LIB_TESTS_on_prepare -->
<g id="node42" class="node">
<title>LIB_TESTS_on_prepare</title>
<polygon fill="lightcoral" stroke="black" points="731.94,-300 670.19,-300 670.19,-264 731.94,-264 731.94,-300"/>
<text xml:space="preserve" text-anchor="middle" x="701.06" y="-278.12" font-family="Times New Roman,serif" font-size="10.00">on_prepare</text>
</g>
<!-- LIB_TESTS_on_clean -->
<g id="node43" class="node">
<title>LIB_TESTS_on_clean</title>
<polygon fill="lightcoral" stroke="black" points="997.06,-316 943.06,-316 943.06,-280 997.06,-280 997.06,-316"/>
<text xml:space="preserve" text-anchor="middle" x="970.06" y="-294.12" font-family="Times New Roman,serif" font-size="10.00">on_clean</text>
</g>
<!-- LIB_TESTS_test_file_path -->
<g id="node44" class="node">
<title>LIB_TESTS_test_file_path</title>
<polygon fill="lightgray" stroke="black" points="735.19,-36 662.94,-36 662.94,0 735.19,0 735.19,-36"/>
<text xml:space="preserve" text-anchor="middle" x="699.06" y="-14.12" font-family="Times New Roman,serif" font-size="10.00">test_file_path</text>
</g>
<!-- LIB_TESTS_test_anonymous_mapping_creation -->
<g id="node45" class="node">
<title>LIB_TESTS_test_anonymous_mapping_creation</title>
<polygon fill="lightcoral" stroke="black" points="993.19,-204 830.94,-204 830.94,-168 993.19,-168 993.19,-204"/>
<text xml:space="preserve" text-anchor="middle" x="912.06" y="-182.12" font-family="Times New Roman,serif" font-size="10.00">test_anonymous_mapping_creation</text>
</g>
<!-- LIB_TESTS_test_anonymous_read_write_byte -->
<g id="node46" class="node">
<title>LIB_TESTS_test_anonymous_read_write_byte</title>
<polygon fill="lightcoral" stroke="black" points="1041.44,-260 886.69,-260 886.69,-224 1041.44,-224 1041.44,-260"/>
<text xml:space="preserve" text-anchor="middle" x="964.06" y="-238.12" font-family="Times New Roman,serif" font-size="10.00">test_anonymous_read_write_byte</text>
</g>
<!-- LIB_TESTS_test_anonymous_read_write_integer -->
<g id="node47" class="node">
<title>LIB_TESTS_test_anonymous_read_write_integer</title>
<polygon fill="lightcoral" stroke="black" points="875.69,-148 710.44,-148 710.44,-112 875.69,-112 875.69,-148"/>
<text xml:space="preserve" text-anchor="middle" x="793.06" y="-126.12" font-family="Times New Roman,serif" font-size="10.00">test_anonymous_read_write_integer</text>
</g>
<!-- LIB_TESTS_test_anonymous_read_write_string -->
<g id="node48" class="node">
<title>LIB_TESTS_test_anonymous_read_write_string</title>
<polygon fill="lightcoral" stroke="black" points="1055.06,-148 895.06,-148 895.06,-112 1055.06,-112 1055.06,-148"/>
<text xml:space="preserve" text-anchor="middle" x="975.06" y="-126.12" font-family="Times New Roman,serif" font-size="10.00">test_anonymous_read_write_string</text>
</g>
<!-- LIB_TESTS_test_anonymous_read_write_bytes -->
<g id="node49" class="node">
<title>LIB_TESTS_test_anonymous_read_write_bytes</title>
<polygon fill="lightcoral" stroke="black" points="957.31,-92 798.81,-92 798.81,-56 957.31,-56 957.31,-92"/>
<text xml:space="preserve" text-anchor="middle" x="878.06" y="-70.12" font-family="Times New Roman,serif" font-size="10.00">test_anonymous_read_write_bytes</text>
</g>
<!-- LIB_TESTS_test_file_mapping_read -->
<g id="node50" class="node">
<title>LIB_TESTS_test_file_mapping_read</title>
<polygon fill="lightcoral" stroke="black" points="863.44,-260 750.69,-260 750.69,-224 863.44,-224 863.44,-260"/>
<text xml:space="preserve" text-anchor="middle" x="807.06" y="-238.12" font-family="Times New Roman,serif" font-size="10.00">test_file_mapping_read</text>
</g>
<!-- LIB_TESTS_test_file_mapping_write -->
<g id="node51" class="node">
<title>LIB_TESTS_test_file_mapping_write</title>
<polygon fill="lightcoral" stroke="black" points="811.31,-204 694.81,-204 694.81,-168 811.31,-168 811.31,-204"/>
<text xml:space="preserve" text-anchor="middle" x="753.06" y="-182.12" font-family="Times New Roman,serif" font-size="10.00">test_file_mapping_write</text>
</g>
<!-- LIB_TESTS_test_shared_mapping -->
<g id="node52" class="node">
<title>LIB_TESTS_test_shared_mapping</title>
<polygon fill="lightcoral" stroke="black" points="901.56,-36 798.56,-36 798.56,0 901.56,0 901.56,-36"/>
<text xml:space="preserve" text-anchor="middle" x="850.06" y="-14.12" font-family="Times New Roman,serif" font-size="10.00">test_shared_mapping</text>
</g>
<!-- LIB_TESTS_test_invalid_file -->
<g id="node53" class="node">
<title>LIB_TESTS_test_invalid_file</title>
<polygon fill="lightcoral" stroke="black" points="1009.81,-36 926.31,-36 926.31,0 1009.81,0 1009.81,-36"/>
<text xml:space="preserve" text-anchor="middle" x="968.06" y="-14.12" font-family="Times New Roman,serif" font-size="10.00">test_invalid_file</text>
</g>
<!-- LIB_TESTS_test_close_invalidates -->
<g id="node54" class="node">
<title>LIB_TESTS_test_close_invalidates</title>
<polygon fill="lightcoral" stroke="black" points="777.44,-92 670.69,-92 670.69,-56 777.44,-56 777.44,-92"/>
<text xml:space="preserve" text-anchor="middle" x="724.06" y="-70.12" font-family="Times New Roman,serif" font-size="10.00">test_close_invalidates</text>
</g>
<!-- TEST_APP_make -->
<g id="node55" class="node">
<title>TEST_APP_make</title>
<polygon fill="lightcoral" stroke="black" points="722,-738 668,-738 668,-702 722,-702 722,-738"/>
<text xml:space="preserve" text-anchor="middle" x="695" y="-716.12" font-family="Times New Roman,serif" font-size="10.00">make</text>
</g>
<!-- legend_full -->
<g id="node56" class="node">
<title>legend_full</title>
<polygon fill="palegreen" stroke="black" points="872.88,-534.12 758.62,-534.12 758.62,-493.12 872.88,-493.12 872.88,-534.12"/>
<text xml:space="preserve" text-anchor="middle" x="815.75" y="-516.83" font-family="Times New Roman,serif" font-size="14.00">Full Contract</text>
<text xml:space="preserve" text-anchor="middle" x="815.75" y="-500.32" font-family="Times New Roman,serif" font-size="14.00">(require + ensure)</text>
</g>
<!-- legend_partial -->
<g id="node57" class="node">
<title>legend_partial</title>
<polygon fill="khaki" stroke="black" points="883.38,-470.12 766.12,-470.12 766.12,-429.12 883.38,-429.12 883.38,-470.12"/>
<text xml:space="preserve" text-anchor="middle" x="824.75" y="-452.82" font-family="Times New Roman,serif" font-size="14.00">Partial Contract</text>
<text xml:space="preserve" text-anchor="middle" x="824.75" y="-436.32" font-family="Times New Roman,serif" font-size="14.00">(require or ensure)</text>
</g>
<!-- legend_none -->
<g id="node58" class="node">
<title>legend_none</title>
<polygon fill="lightcoral" stroke="black" points="849.12,-592.62 766.38,-592.62 766.38,-556.62 849.12,-556.62 849.12,-592.62"/>
<text xml:space="preserve" text-anchor="middle" x="807.75" y="-569.58" font-family="Times New Roman,serif" font-size="14.00">No Contract</text>
</g>
<!-- legend_attr -->
<g id="node59" class="node">
<title>legend_attr</title>
<polygon fill="lightgray" stroke="black" points="743.12,-606.12 678.38,-606.12 678.38,-565.12 743.12,-565.12 743.12,-606.12"/>
<text xml:space="preserve" text-anchor="middle" x="710.75" y="-588.83" font-family="Times New Roman,serif" font-size="14.00">Attribute</text>
<text xml:space="preserve" text-anchor="middle" x="710.75" y="-572.33" font-family="Times New Roman,serif" font-size="14.00">(n/a)</text>
</g>
<!-- legend_stats -->
<g id="node60" class="node">
<title>legend_stats</title>
<polygon fill="white" stroke="black" points="728.88,-544.12 662.62,-544.12 662.62,-437.13 734.88,-437.13 734.88,-538.12 728.88,-544.12"/>
<polyline fill="none" stroke="black" points="728.88,-544.12 728.88,-538.12"/>
<polyline fill="none" stroke="black" points="734.88,-538.12 728.88,-538.12"/>
<text xml:space="preserve" text-anchor="middle" x="698.75" y="-526.83" font-family="Times New Roman,serif" font-size="14.00">Statistics</text>
<text xml:space="preserve" text-anchor="middle" x="698.75" y="-510.32" font-family="Times New Roman,serif" font-size="14.00">Full: 0</text>
<text xml:space="preserve" text-anchor="middle" x="698.75" y="-493.82" font-family="Times New Roman,serif" font-size="14.00">Partial: 13</text>
<text xml:space="preserve" text-anchor="middle" x="698.75" y="-477.32" font-family="Times New Roman,serif" font-size="14.00">None: 35</text>
<text xml:space="preserve" text-anchor="middle" x="698.75" y="-460.82" font-family="Times New Roman,serif" font-size="14.00">Attr: 7</text>
<text xml:space="preserve" text-anchor="middle" x="698.75" y="-444.32" font-family="Times New Roman,serif" font-size="14.00">Total: 55</text>
</g>
</g>
</svg>
