<?xml version="1.0" encoding="UTF-8" standalone="no"?>
<!DOCTYPE svg PUBLIC "-//W3C//DTD SVG 1.1//EN"
 "http://www.w3.org/Graphics/SVG/1.1/DTD/svg11.dtd">
<!-- Generated by graphviz version 14.1.1 (20251213.1925)
 -->
<!-- Title: Dependencies Pages: 1 -->
<svg width="342pt" height="213pt"
 viewBox="0.00 0.00 342.00 213.00" xmlns="http://www.w3.org/2000/svg" xmlns:xlink="http://www.w3.org/1999/xlink">
<g id="graph0" class="graph" transform="scale(1 1) rotate(0) translate(4 208.5)">
<title>Dependencies</title>
<polygon fill="white" stroke="none" points="-4,4 -4,-208.5 338.25,-208.5 338.25,4 -4,4"/>
<text xml:space="preserve" text-anchor="middle" x="167.12" y="-7.2" font-family="Times New Roman,serif" font-size="14.00">simple_mmap &#45; Dependencies</text>
<!-- simple_mmap -->
<g id="node1" class="node">
<title>simple_mmap</title>
<polygon fill="lightblue" stroke="black" points="94.75,-132.5 0,-132.5 0,-96.5 94.75,-96.5 94.75,-132.5"/>
<text xml:space="preserve" text-anchor="middle" x="47.38" y="-109.45" font-family="Times New Roman,serif" font-size="14.00">simple_mmap</text>
</g>
<!-- simple_testing -->
<g id="node2" class="node">
<title>simple_testing</title>
<polygon fill="lightblue" stroke="black" points="334.25,-204.5 238.75,-204.5 238.75,-168.5 334.25,-168.5 334.25,-204.5"/>
<text xml:space="preserve" text-anchor="middle" x="286.5" y="-181.45" font-family="Times New Roman,serif" font-size="14.00">simple_testing</text>
</g>
<!-- simple_mmap&#45;&gt;simple_testing -->
<g id="edge1" class="edge">
<title>simple_mmap&#45;&gt;simple_testing</title>
<path fill="none" stroke="black" stroke-dasharray="5,2" d="M95.22,-120.5C154.91,-120.5 249.25,-120.5 249.25,-120.5 249.25,-120.5 249.25,-156.6 249.25,-156.6"/>
<polygon fill="black" stroke="black" points="245.75,-156.6 249.25,-166.6 252.75,-156.6 245.75,-156.6"/>
</g>
<!-- base -->
<g id="node3" class="node">
<title>base</title>
<polygon fill="lightgray" stroke="black" points="313.5,-132.5 259.5,-132.5 259.5,-96.5 313.5,-96.5 313.5,-132.5"/>
<text xml:space="preserve" text-anchor="middle" x="286.5" y="-109.45" font-family="Times New Roman,serif" font-size="14.00">base</text>
</g>
<!-- simple_mmap&#45;&gt;base -->
<g id="edge2" class="edge">
<title>simple_mmap&#45;&gt;base</title>
<path fill="none" stroke="black" stroke-dasharray="5,2" d="M95.19,-108.5C95.19,-108.5 247.72,-108.5 247.72,-108.5"/>
<polygon fill="black" stroke="black" points="247.72,-112 257.72,-108.5 247.72,-105 247.72,-112"/>
</g>
<!-- testing -->
<g id="node4" class="node">
<title>testing</title>
<polygon fill="lightgray" stroke="black" points="313.5,-60.5 259.5,-60.5 259.5,-24.5 313.5,-24.5 313.5,-60.5"/>
<text xml:space="preserve" text-anchor="middle" x="286.5" y="-37.45" font-family="Times New Roman,serif" font-size="14.00">testing</text>
</g>
<!-- simple_mmap&#45;&gt;testing -->
<g id="edge3" class="edge">
<title>simple_mmap&#45;&gt;testing</title>
<path fill="none" stroke="black" stroke-dasharray="5,2" d="M47.25,-96.33C47.25,-75 47.25,-42.5 47.25,-42.5 47.25,-42.5 247.54,-42.5 247.54,-42.5"/>
<polygon fill="black" stroke="black" points="247.54,-46 257.54,-42.5 247.54,-39 247.54,-46"/>
</g>
</g>
</svg>
